<mxfile host="app.diagrams.net" modified="2021-02-10T12:00:27.877Z" agent="5.0 (Macintosh; Intel Mac OS X 11_2_0) AppleWebKit/537.36 (KHTML, like Gecko) Chrome/88.0.4324.146 Safari/537.36" etag="3lfNrQt2lIORvZpVwxkH" version="14.2.9" type="github">
  <diagram id="lyus1H-M3ir7NFfIUbXU" name="ページ1">
    <mxGraphModel dx="1906" dy="1037" grid="1" gridSize="10" guides="1" tooltips="1" connect="1" arrows="1" fold="1" page="1" pageScale="1" pageWidth="827" pageHeight="1169" math="0" shadow="0">
      <root>
        <mxCell id="0" />
        <mxCell id="1" parent="0" />
        <mxCell id="XXzHRJgeh1mkNBS09VlQ-1" value="開始" style="ellipse;whiteSpace=wrap;html=1;" vertex="1" parent="1">
          <mxGeometry x="341" y="40" width="146" height="70" as="geometry" />
        </mxCell>
        <mxCell id="XXzHRJgeh1mkNBS09VlQ-2" value="" style="endArrow=classic;html=1;entryX=0.5;entryY=0;entryDx=0;entryDy=0;" edge="1" parent="1" target="XXzHRJgeh1mkNBS09VlQ-3">
          <mxGeometry width="50" height="50" relative="1" as="geometry">
            <mxPoint x="414" y="110" as="sourcePoint" />
            <mxPoint x="414" y="180" as="targetPoint" />
            <Array as="points" />
          </mxGeometry>
        </mxCell>
        <mxCell id="XXzHRJgeh1mkNBS09VlQ-3" value="INPUT number" style="shape=parallelogram;perimeter=parallelogramPerimeter;whiteSpace=wrap;html=1;fixedSize=1;" vertex="1" parent="1">
          <mxGeometry x="354" y="180" width="120" height="60" as="geometry" />
        </mxCell>
        <mxCell id="XXzHRJgeh1mkNBS09VlQ-5" value="終了" style="ellipse;whiteSpace=wrap;html=1;" vertex="1" parent="1">
          <mxGeometry x="344" y="1790" width="146" height="70" as="geometry" />
        </mxCell>
        <mxCell id="XXzHRJgeh1mkNBS09VlQ-11" value="" style="endArrow=classic;html=1;entryX=1;entryY=0.5;entryDx=0;entryDy=0;" edge="1" parent="1" target="XXzHRJgeh1mkNBS09VlQ-5">
          <mxGeometry width="50" height="50" relative="1" as="geometry">
            <mxPoint x="486" y="585" as="sourcePoint" />
            <mxPoint x="486" y="635" as="targetPoint" />
            <Array as="points">
              <mxPoint x="730" y="585" />
              <mxPoint x="760" y="1830" />
            </Array>
          </mxGeometry>
        </mxCell>
        <mxCell id="XXzHRJgeh1mkNBS09VlQ-12" value="変数定義&lt;br&gt;&lt;br&gt;number: 入力された数値&lt;br&gt;odd: 奇数" style="rounded=1;whiteSpace=wrap;html=1;absoluteArcSize=1;arcSize=14;strokeWidth=2;align=left;" vertex="1" parent="1">
          <mxGeometry x="550" y="70" width="260" height="100" as="geometry" />
        </mxCell>
        <mxCell id="XXzHRJgeh1mkNBS09VlQ-13" value="number/2 = odd" style="strokeWidth=2;html=1;shape=mxgraph.flowchart.decision;whiteSpace=wrap;" vertex="1" parent="1">
          <mxGeometry x="344" y="320" width="140" height="60" as="geometry" />
        </mxCell>
        <mxCell id="XXzHRJgeh1mkNBS09VlQ-15" value="" style="endArrow=classic;html=1;exitX=0.5;exitY=1;exitDx=0;exitDy=0;" edge="1" parent="1" source="XXzHRJgeh1mkNBS09VlQ-3">
          <mxGeometry width="50" height="50" relative="1" as="geometry">
            <mxPoint x="413" y="335" as="sourcePoint" />
            <mxPoint x="414" y="320" as="targetPoint" />
            <Array as="points" />
          </mxGeometry>
        </mxCell>
        <mxCell id="XXzHRJgeh1mkNBS09VlQ-16" value="" style="endArrow=classic;html=1;" edge="1" parent="1">
          <mxGeometry width="50" height="50" relative="1" as="geometry">
            <mxPoint x="413" y="380" as="sourcePoint" />
            <mxPoint x="413" y="450" as="targetPoint" />
            <Array as="points" />
          </mxGeometry>
        </mxCell>
        <mxCell id="XXzHRJgeh1mkNBS09VlQ-17" value="Yes" style="text;html=1;strokeColor=none;fillColor=none;align=center;verticalAlign=middle;whiteSpace=wrap;rounded=0;" vertex="1" parent="1">
          <mxGeometry x="420" y="380" width="40" height="20" as="geometry" />
        </mxCell>
        <mxCell id="XXzHRJgeh1mkNBS09VlQ-24" value="" style="edgeStyle=orthogonalEdgeStyle;rounded=0;orthogonalLoop=1;jettySize=auto;html=1;" edge="1" parent="1" source="XXzHRJgeh1mkNBS09VlQ-20" target="XXzHRJgeh1mkNBS09VlQ-21">
          <mxGeometry relative="1" as="geometry" />
        </mxCell>
        <mxCell id="XXzHRJgeh1mkNBS09VlQ-20" value="count ← 0" style="rounded=1;whiteSpace=wrap;html=1;" vertex="1" parent="1">
          <mxGeometry x="354" y="450" width="120" height="45" as="geometry" />
        </mxCell>
        <mxCell id="XXzHRJgeh1mkNBS09VlQ-21" value="count &amp;lt; 5" style="strokeWidth=2;html=1;shape=mxgraph.flowchart.decision;whiteSpace=wrap;" vertex="1" parent="1">
          <mxGeometry x="344" y="555" width="140" height="60" as="geometry" />
        </mxCell>
        <mxCell id="XXzHRJgeh1mkNBS09VlQ-22" value="" style="endArrow=classic;html=1;" edge="1" parent="1">
          <mxGeometry width="50" height="50" relative="1" as="geometry">
            <mxPoint x="413" y="495" as="sourcePoint" />
            <mxPoint x="413" y="560" as="targetPoint" />
            <Array as="points" />
          </mxGeometry>
        </mxCell>
        <mxCell id="XXzHRJgeh1mkNBS09VlQ-23" value="Yes" style="text;html=1;strokeColor=none;fillColor=none;align=center;verticalAlign=middle;whiteSpace=wrap;rounded=0;" vertex="1" parent="1">
          <mxGeometry x="420" y="630" width="40" height="20" as="geometry" />
        </mxCell>
        <mxCell id="XXzHRJgeh1mkNBS09VlQ-25" value="" style="edgeStyle=orthogonalEdgeStyle;rounded=0;orthogonalLoop=1;jettySize=auto;html=1;exitX=0.5;exitY=1;exitDx=0;exitDy=0;exitPerimeter=0;" edge="1" parent="1" source="XXzHRJgeh1mkNBS09VlQ-21">
          <mxGeometry relative="1" as="geometry">
            <mxPoint x="424" y="650" as="sourcePoint" />
            <mxPoint x="414" y="680" as="targetPoint" />
          </mxGeometry>
        </mxCell>
        <mxCell id="XXzHRJgeh1mkNBS09VlQ-26" value="count ← 1+count" style="rounded=1;whiteSpace=wrap;html=1;" vertex="1" parent="1">
          <mxGeometry x="354" y="680" width="120" height="45" as="geometry" />
        </mxCell>
        <mxCell id="XXzHRJgeh1mkNBS09VlQ-28" value="" style="endArrow=classic;html=1;" edge="1" parent="1">
          <mxGeometry width="50" height="50" relative="1" as="geometry">
            <mxPoint x="414" y="725" as="sourcePoint" />
            <mxPoint x="414" y="775" as="targetPoint" />
            <Array as="points" />
          </mxGeometry>
        </mxCell>
        <mxCell id="XXzHRJgeh1mkNBS09VlQ-29" value="PRINT number" style="shape=parallelogram;perimeter=parallelogramPerimeter;whiteSpace=wrap;html=1;fixedSize=1;" vertex="1" parent="1">
          <mxGeometry x="354" y="780" width="120" height="60" as="geometry" />
        </mxCell>
        <mxCell id="XXzHRJgeh1mkNBS09VlQ-30" value="" style="endArrow=classic;html=1;exitX=0;exitY=0.5;exitDx=0;exitDy=0;" edge="1" parent="1" source="XXzHRJgeh1mkNBS09VlQ-29">
          <mxGeometry width="50" height="50" relative="1" as="geometry">
            <mxPoint x="360" y="800" as="sourcePoint" />
            <mxPoint x="410" y="520" as="targetPoint" />
            <Array as="points">
              <mxPoint x="170" y="810" />
              <mxPoint x="170" y="520" />
            </Array>
          </mxGeometry>
        </mxCell>
        <mxCell id="XXzHRJgeh1mkNBS09VlQ-31" value="No" style="text;html=1;strokeColor=none;fillColor=none;align=center;verticalAlign=middle;whiteSpace=wrap;rounded=0;" vertex="1" parent="1">
          <mxGeometry x="500" y="555" width="40" height="20" as="geometry" />
        </mxCell>
        <mxCell id="XXzHRJgeh1mkNBS09VlQ-34" value="" style="edgeStyle=orthogonalEdgeStyle;rounded=0;orthogonalLoop=1;jettySize=auto;html=1;" edge="1" parent="1" source="XXzHRJgeh1mkNBS09VlQ-35" target="XXzHRJgeh1mkNBS09VlQ-36">
          <mxGeometry relative="1" as="geometry" />
        </mxCell>
        <mxCell id="XXzHRJgeh1mkNBS09VlQ-35" value="count ← 0" style="rounded=1;whiteSpace=wrap;html=1;" vertex="1" parent="1">
          <mxGeometry x="854" y="450" width="120" height="45" as="geometry" />
        </mxCell>
        <mxCell id="XXzHRJgeh1mkNBS09VlQ-36" value="count &amp;lt; 10" style="strokeWidth=2;html=1;shape=mxgraph.flowchart.decision;whiteSpace=wrap;" vertex="1" parent="1">
          <mxGeometry x="844" y="555" width="140" height="60" as="geometry" />
        </mxCell>
        <mxCell id="XXzHRJgeh1mkNBS09VlQ-37" value="" style="endArrow=classic;html=1;" edge="1" parent="1">
          <mxGeometry width="50" height="50" relative="1" as="geometry">
            <mxPoint x="913" y="495" as="sourcePoint" />
            <mxPoint x="913" y="560" as="targetPoint" />
            <Array as="points" />
          </mxGeometry>
        </mxCell>
        <mxCell id="XXzHRJgeh1mkNBS09VlQ-38" value="Yes" style="text;html=1;strokeColor=none;fillColor=none;align=center;verticalAlign=middle;whiteSpace=wrap;rounded=0;" vertex="1" parent="1">
          <mxGeometry x="920" y="630" width="40" height="20" as="geometry" />
        </mxCell>
        <mxCell id="XXzHRJgeh1mkNBS09VlQ-39" value="" style="edgeStyle=orthogonalEdgeStyle;rounded=0;orthogonalLoop=1;jettySize=auto;html=1;exitX=0.5;exitY=1;exitDx=0;exitDy=0;exitPerimeter=0;" edge="1" parent="1" source="XXzHRJgeh1mkNBS09VlQ-36">
          <mxGeometry relative="1" as="geometry">
            <mxPoint x="924" y="650" as="sourcePoint" />
            <mxPoint x="914" y="680" as="targetPoint" />
          </mxGeometry>
        </mxCell>
        <mxCell id="XXzHRJgeh1mkNBS09VlQ-40" value="count ← 1+count" style="rounded=1;whiteSpace=wrap;html=1;" vertex="1" parent="1">
          <mxGeometry x="854" y="680" width="120" height="45" as="geometry" />
        </mxCell>
        <mxCell id="XXzHRJgeh1mkNBS09VlQ-41" value="" style="endArrow=classic;html=1;" edge="1" parent="1">
          <mxGeometry width="50" height="50" relative="1" as="geometry">
            <mxPoint x="914" y="725" as="sourcePoint" />
            <mxPoint x="914" y="775" as="targetPoint" />
            <Array as="points" />
          </mxGeometry>
        </mxCell>
        <mxCell id="XXzHRJgeh1mkNBS09VlQ-42" value="PRINT number" style="shape=parallelogram;perimeter=parallelogramPerimeter;whiteSpace=wrap;html=1;fixedSize=1;" vertex="1" parent="1">
          <mxGeometry x="854" y="780" width="120" height="60" as="geometry" />
        </mxCell>
        <mxCell id="XXzHRJgeh1mkNBS09VlQ-43" value="" style="endArrow=classic;html=1;exitX=0;exitY=0.5;exitDx=0;exitDy=0;" edge="1" parent="1" source="XXzHRJgeh1mkNBS09VlQ-42">
          <mxGeometry width="50" height="50" relative="1" as="geometry">
            <mxPoint x="860" y="800" as="sourcePoint" />
            <mxPoint x="910" y="520" as="targetPoint" />
            <Array as="points">
              <mxPoint x="670" y="810" />
              <mxPoint x="670" y="520" />
            </Array>
          </mxGeometry>
        </mxCell>
        <mxCell id="XXzHRJgeh1mkNBS09VlQ-44" value="" style="endArrow=classic;html=1;exitX=0.5;exitY=1;exitDx=0;exitDy=0;entryX=0;entryY=0.5;entryDx=0;entryDy=0;" edge="1" parent="1" target="XXzHRJgeh1mkNBS09VlQ-35">
          <mxGeometry width="50" height="50" relative="1" as="geometry">
            <mxPoint x="487" y="350" as="sourcePoint" />
            <mxPoint x="487" y="430" as="targetPoint" />
            <Array as="points" />
          </mxGeometry>
        </mxCell>
        <mxCell id="XXzHRJgeh1mkNBS09VlQ-45" value="No" style="text;html=1;strokeColor=none;fillColor=none;align=center;verticalAlign=middle;whiteSpace=wrap;rounded=0;" vertex="1" parent="1">
          <mxGeometry x="490" y="320" width="40" height="20" as="geometry" />
        </mxCell>
        <mxCell id="XXzHRJgeh1mkNBS09VlQ-46" value="" style="endArrow=classic;html=1;" edge="1" parent="1" target="XXzHRJgeh1mkNBS09VlQ-5">
          <mxGeometry width="50" height="50" relative="1" as="geometry">
            <mxPoint x="980" y="470" as="sourcePoint" />
            <mxPoint x="1018" y="1710" as="targetPoint" />
            <Array as="points">
              <mxPoint x="1258" y="470" />
              <mxPoint x="1300" y="1816" />
            </Array>
          </mxGeometry>
        </mxCell>
        <mxCell id="XXzHRJgeh1mkNBS09VlQ-47" value="No" style="text;html=1;strokeColor=none;fillColor=none;align=center;verticalAlign=middle;whiteSpace=wrap;rounded=0;" vertex="1" parent="1">
          <mxGeometry x="1000" y="545" width="40" height="20" as="geometry" />
        </mxCell>
      </root>
    </mxGraphModel>
  </diagram>
</mxfile>
